<?xml version="1.0" standalone="no"?><!DOCTYPE svg PUBLIC "-//W3C//DTD SVG 1.1//EN" "http://www.w3.org/Graphics/SVG/1.1/DTD/svg11.dtd"><svg t="1671356880171" class="icon" viewBox="0 0 1024 1024" version="1.1" xmlns="http://www.w3.org/2000/svg" p-id="2789" xmlns:xlink="http://www.w3.org/1999/xlink" width="20" height="20"><path d="M978.013091 312.645818a510.231273 510.231273 0 0 0-269.265455-272.011636 505.018182 505.018182 0 0 0-393.821091 0 505.157818 505.157818 0 0 0-160.791272 109.498182A512.069818 512.069818 0 0 0 6.004364 511.627636a511.953455 511.953455 0 0 0 308.992 471.016728 499.828364 499.828364 0 0 0 196.933818 40.122181 500.433455 500.433455 0 0 0 357.608727-149.666909c46.405818-46.545455 83.269818-101.725091 108.474182-162.397091a517.376 517.376 0 0 0 0-398.056727z m-31.697455 198.912c-0.116364 241.966545-195.025455 438.853818-434.385454 438.853818-239.499636 0-434.338909-196.887273-434.338909-438.853818 0-242.036364 194.839273-438.877091 434.338909-438.877091 239.499636-0.023273 434.385455 196.840727 434.385454 438.877091z m0 0" p-id="2790"></path><path d="M312.180364 458.170182c39.424 0 71.563636-32.395636 71.563636-72.192s-32.139636-72.168727-71.563636-72.168727c-39.400727 0-71.354182 32.325818-71.354182 72.052363a71.517091 71.517091 0 0 0 71.354182 72.308364z m399.569454 1.396363c39.284364 0 71.307636-32.395636 71.307637-72.122181 0-39.936-32.023273-72.331636-71.307637-72.331637-39.400727 0-71.540364 32.395636-71.540363 72.331637 0 39.726545 32.139636 72.122182 71.540363 72.122181z m58.577455 161.512728a36.398545 36.398545 0 0 0-50.082909 7.400727c-47.918545 65.024-125.858909 103.68-208.314182 103.68-82.478545 0-160.418909-38.656-208.244364-103.563636a36.445091 36.445091 0 0 0-50.152727-7.540364 36.235636 36.235636 0 0 0-7.284364 50.455273 325.981091 325.981091 0 0 0 114.082909 96.721454 334.801455 334.801455 0 0 0 302.987637 0 327.074909 327.074909 0 0 0 114.292363-96.791272c11.636364-15.965091 8.401455-38.330182-7.284363-50.362182z m0 0" p-id="2791"></path></svg>