<svg t="1668409113684" class="icon" viewBox="0 0 1024 1024" version="1.1" xmlns="http://www.w3.org/2000/svg" p-id="3072" width="20" height="20"><path d="M212.079982 826.591031a62.2 83.3 44.999 1 0 117.801934-117.806045 62.2 83.3 44.999 1 0-117.801934 117.806045Z" fill="#999999" p-id="3073"></path><path d="M886.9 150.3c-74.2-74.2-258.7-1.7-429.1 168.7-23.3 23.3-44.8 47.3-64.8 71.5l-0.2-0.7-234.3 70.9 134.8 134.8L441.6 744l134.8 134.8 70.9-234.4-0.6-0.2c24.2-19.9 48.2-41.5 71.5-64.8 170.4-170.3 242.9-354.8 168.7-429.1zM342 459c-16 23.9-30 47.6-41.7 70.8l-44.7-44.7L342 459z m210.1 322.7L507.4 737c23.2-11.7 47-25.7 70.8-41.7l-26.1 86.4z m-83.2-83.2L338.7 568.3c31.5-68.6 86.1-143.6 155.5-212.9 154.7-154.7 312-213 356.4-168.7 44.4 44.4-14 201.7-168.7 356.4-68.3 68.3-145 124.1-213 155.4zM351 688.2c-2.8-2.9-5.8-5.5-9-8-23.4-18.6-53.8-24.7-83.5-16.9-31.2 8.2-57 30.8-69.1 60.5l-53.1 178.9 176.5-52.2 2.4-0.9c29.7-12.1 52.3-37.9 60.5-69.1 7.8-29.6 1.6-60-16.9-83.4-2.4-3.2-5.1-6.2-7.8-8.9z m-25 79.2c-4 15.2-14.8 27.9-29.1 34.1l-84.4 25 25-84.3c6.2-14.3 18.9-25.1 34.1-29.1 8.1-2.1 23.9-4 38.5 7.5 1.5 1.2 3 2.5 4.5 4.1 1.4 1.4 2.7 2.9 3.9 4.4 11.5 14.4 9.6 30.2 7.5 38.3z" fill="#999999" p-id="3074"></path><path d="M627.4 507.8c-24.5 0-47.4-9.5-64.7-26.8-17.3-17.3-26.8-40.3-26.8-64.7 0-24.5 9.5-47.4 26.8-64.7 17.3-17.3 40.3-26.8 64.7-26.8 24.5 0 47.4 9.5 64.7 26.8 17.3 17.3 26.8 40.3 26.8 64.7 0 24.5-9.5 47.4-26.8 64.7-17.3 17.3-40.3 26.8-64.7 26.8z m0-131.6c-10.7 0-20.8 4.2-28.3 11.7-7.6 7.6-11.7 17.6-11.7 28.3s4.2 20.8 11.7 28.4c15.1 15.1 41.6 15.1 56.7 0 7.6-7.6 11.7-17.6 11.7-28.4 0-10.7-4.2-20.8-11.7-28.3-7.6-7.6-17.7-11.7-28.4-11.7z" fill="#999999" p-id="3075"></path></svg>