<?xml version="1.0" standalone="no"?><!DOCTYPE svg PUBLIC "-//W3C//DTD SVG 1.1//EN" "http://www.w3.org/Graphics/SVG/1.1/DTD/svg11.dtd"><svg t="1678431100873" class="icon" viewBox="0 0 1024 1024" version="1.1" xmlns="http://www.w3.org/2000/svg" p-id="3287" id="mx_n_1678431100874" xmlns:xlink="http://www.w3.org/1999/xlink" width="128" height="128"><path d="M256 512m-64 0a64 64 0 1 0 128 0 64 64 0 1 0-128 0Z"  p-id="3288"></path><path d="M435.7 282.8a31.9 31.9 0 0 0 0 45.2 257.4 257.4 0 0 1 0 368 32 32 0 1 0 44.9 45.6 321.4 321.4 0 0 0 0-459.2 31.9 31.9 0 0 0-44.9 0.4z"  p-id="3289"></path><path d="M660.9 105.2a32 32 0 0 0-44.9 45.6 505.2 505.2 0 0 1 0 722.4 32 32 0 1 0 44.9 45.6 569.1 569.1 0 0 0 0-813.6z"  p-id="3290"></path></svg>